<svg width="210" height="64" viewBox="0 0 210 64" fill="none" xmlns="http://www.w3.org/2000/svg">
<path d="M21.7686 60.9208V42.6506H28.7585V60.9208H21.7686Z" fill="#80C41D"/>
<path d="M49.5164 56.7305H0V63.7041H49.5164V56.7305Z" fill="#80C41D"/>
<path d="M0 48.8211V0H23.445L26.9429 6.97359H6.98991V41.8475H42.5265V17.437H17.4778V31.3842H31.4576V27.8943H21.5568V20.9208H38.4475V38.3577H10.4879V10.4634H49.5164V48.8211H0Z" fill="#80C41D"/>
<path d="M59.4471 21.1745C59.4289 20.3319 59.5876 19.4948 59.9131 18.7171C60.1982 18.0568 60.6308 17.4703 61.178 17.0024C61.7366 16.5327 62.3852 16.1814 63.0843 15.9699C63.8535 15.7278 64.6561 15.6076 65.4627 15.6137H79.9448C80.0589 15.5994 80.173 15.639 80.2537 15.7206C80.3344 15.8023 80.3723 15.9168 80.3563 16.0303V20.5707C80.3723 20.6842 80.3344 20.7987 80.2537 20.8804C80.173 20.962 80.0589 21.0016 79.9448 20.9873H67.4417C66.8557 20.9248 66.2758 21.1499 65.8863 21.5911C65.5648 22.103 65.4123 22.7028 65.4506 23.3058V27.2303C65.4506 27.5322 65.5898 27.6831 65.8682 27.6831H78.5771C78.6917 27.6662 78.8075 27.7049 78.8889 27.7872C78.9702 27.8696 79.0073 27.9857 78.9886 28.0997V32.6401C79.0073 32.7542 78.9702 32.8703 78.8889 32.9526C78.8075 33.035 78.6917 33.0736 78.5771 33.0567H65.8682C65.5898 33.0567 65.4506 33.2077 65.4506 33.5096V44.8484C65.4671 44.9616 65.429 45.0758 65.348 45.1566C65.267 45.2375 65.1525 45.2754 65.0391 45.259H59.8587C59.7453 45.2754 59.6307 45.2375 59.5497 45.1566C59.4687 45.0758 59.4307 44.9616 59.4471 44.8484V21.1745Z" fill="#2C2F34"/>
<path d="M82.2204 30.4301C82.2204 28.8201 82.2345 27.4113 82.2628 26.2037C82.2686 25.2347 82.3515 24.2676 82.5109 23.3117C82.7288 22.2369 82.9648 21.2769 83.2129 20.4196C83.4168 19.6644 83.7528 18.951 84.2054 18.3124C84.7873 17.5752 85.489 16.9405 86.2812 16.4347C87.0887 15.9034 87.984 15.5191 88.9259 15.2996C89.7883 15.1401 90.6632 15.0572 91.5403 15.052C92.6135 15.0239 93.8965 15.0098 95.3893 15.0098C96.8821 15.0098 98.1691 15.0379 99.2504 15.0943C100.125 15.0991 100.998 15.182 101.859 15.3418C103.727 15.7924 105.389 16.8555 106.579 18.3607C107.034 18.9979 107.37 19.7117 107.572 20.4679C107.826 21.3252 108.056 22.2792 108.28 23.36C108.433 24.3166 108.516 25.2833 108.528 26.252C108.528 27.4596 108.57 28.8422 108.57 30.4784V30.726C108.57 32.3501 108.57 33.7449 108.528 34.9524C108.516 35.9212 108.433 36.8878 108.28 37.8445C108.056 38.9192 107.826 39.8792 107.572 40.7366C107.37 41.4928 107.034 42.2066 106.579 42.8437C105.389 44.3489 103.727 45.412 101.859 45.8626C100.998 46.0225 100.125 46.1053 99.2504 46.1101C98.1731 46.1423 96.8901 46.1564 95.4014 46.1524C93.9126 46.1484 92.6296 46.1343 91.5524 46.1101C90.6753 46.1049 89.8004 46.0221 88.938 45.8626C87.9887 45.6295 87.0889 45.2287 86.2812 44.6792C85.489 44.1734 84.7873 43.5387 84.2054 42.8015C83.7528 42.1629 83.4168 41.4495 83.2129 40.6943C82.9648 39.8369 82.7288 38.883 82.5109 37.8022C82.3515 36.8463 82.2686 35.8792 82.2628 34.9101C82.2305 33.7267 82.2164 32.3179 82.2204 30.6837V30.4301ZM92.9443 20.7698C92.2755 20.7977 91.6109 20.8887 90.9593 21.0415C90.0798 21.2086 89.3124 21.7395 88.8472 22.5026C88.3756 23.5326 88.1676 24.6632 88.242 25.7932V35.3026C88.1661 36.4307 88.3741 37.5597 88.8472 38.5871C89.31 39.3536 90.0781 39.8872 90.9593 40.0543C91.6106 40.2077 92.2755 40.2967 92.9443 40.32C93.719 40.3622 94.5299 40.3864 95.3651 40.3864C96.2002 40.3864 97.0354 40.3864 97.7858 40.32C98.4546 40.2967 99.1195 40.2077 99.7708 40.0543C100.651 39.885 101.418 39.352 101.883 38.5871C102.353 37.5588 102.561 36.4305 102.488 35.3026V25.8052C102.559 24.6755 102.352 23.5456 101.883 22.5147C101.416 21.7531 100.649 21.2228 99.7708 21.0535C99.1192 20.9008 98.4546 20.8098 97.7858 20.7818C97.0112 20.7396 96.1942 20.7215 95.3651 20.7215C94.536 20.7215 93.719 20.7396 92.9443 20.7818V20.7698Z" fill="#2C2F34"/>
<path d="M112.159 15.6377H127.561C128.342 15.6412 129.115 15.797 129.836 16.0966C130.67 16.4621 131.418 16.9967 132.033 17.6664C133.276 18.9584 133.938 20.9127 134.018 23.529V24.483C134.018 26.8981 133.73 28.6591 133.153 29.766C132.784 30.296 132.38 30.8003 131.942 31.2754C131.452 31.7873 130.879 32.2138 130.248 32.5373C130.21 32.574 130.175 32.6145 130.145 32.6581C130.104 32.7183 130.082 32.7902 130.085 32.8633C130.084 32.9216 130.097 32.9793 130.121 33.0324C130.657 33.6976 131.11 34.4255 131.47 35.1999C131.731 35.8037 131.973 36.4618 132.191 37.1199L134.472 44.1056C134.527 44.3278 134.633 44.5344 134.781 44.7094C134.932 44.8905 135.011 45.0052 135.011 45.0596C135.011 45.1139 134.926 45.2649 134.763 45.2649H129.05C128.88 45.2649 128.699 45.12 128.505 44.8301C128.348 44.6098 128.223 44.3677 128.136 44.1116L125.57 36.8664C125.183 35.3267 124.396 34.4513 123.21 34.3064H118.156C118.043 34.2899 117.928 34.3279 117.847 34.4087C117.766 34.4895 117.728 34.6038 117.745 34.7169V44.8483C117.759 44.962 117.719 45.0759 117.638 45.1564C117.556 45.2369 117.441 45.2747 117.327 45.2588H112.153C112.039 45.2747 111.924 45.2369 111.842 45.1564C111.761 45.0759 111.721 44.962 111.735 44.8483V16.0543C111.718 15.9383 111.758 15.8213 111.841 15.7391C111.925 15.6568 112.043 15.6192 112.159 15.6377ZM118.162 21.0113C118.049 20.9948 117.934 21.0328 117.853 21.1136C117.772 21.1944 117.734 21.3087 117.751 21.4218V28.1599C117.751 28.4316 117.896 28.5705 118.205 28.5705H125.697C126.182 28.5243 126.636 28.3108 126.98 27.9667C127.4 27.59 127.707 27.1054 127.87 26.566C128.087 25.8851 128.194 25.1735 128.184 24.4588C128.184 24.1058 128.164 23.753 128.124 23.4022C128.083 23.0933 127.991 22.7934 127.851 22.5147C127.41 21.609 126.883 21.1139 126.278 21.0294L118.162 21.0113Z" fill="#2C2F34"/>
<path d="M138.037 21.7358C138.021 20.8057 138.119 19.8771 138.328 18.9705C138.483 18.2652 138.826 17.6145 139.32 17.0867C139.845 16.575 140.493 16.2069 141.202 16.0181C142.169 15.7586 143.167 15.6387 144.168 15.6618C145.907 15.6618 147.169 15.9376 147.956 16.489C148.729 17.0258 149.291 17.8131 149.548 18.7169L155.097 39.1245C155.182 39.3962 155.315 39.5351 155.509 39.5351C155.702 39.5351 155.799 39.3962 155.799 39.1245V16.0543C155.783 15.9408 155.821 15.8263 155.902 15.7446C155.983 15.6629 156.097 15.6234 156.211 15.6377H161.391C161.506 15.6208 161.622 15.6594 161.703 15.7418C161.784 15.8241 161.821 15.9402 161.803 16.0543V40.5071C161.8 41.0743 161.689 41.6358 161.476 42.1615C161.254 42.7102 160.954 43.2246 160.586 43.689C160.223 44.1504 159.773 44.5361 159.261 44.8241C158.762 45.11 158.196 45.26 157.621 45.2588H153.814C153.446 45.249 153.084 45.1583 152.755 44.9932C152.375 44.8048 152.021 44.5673 151.702 44.2868C151.371 44.0033 151.079 43.6786 150.831 43.3207C150.591 42.9803 150.409 42.603 150.292 42.2037L144.706 21.6754C144.621 21.4279 144.494 21.3071 144.331 21.3071C144.168 21.3071 144.041 21.4279 144.041 21.6754V44.8483C144.057 44.9614 144.019 45.0756 143.938 45.1565C143.857 45.2373 143.742 45.2753 143.629 45.2588H138.455C138.341 45.2748 138.226 45.2369 138.144 45.1564C138.062 45.0759 138.023 44.962 138.037 44.8483V21.7358Z" fill="#2C2F34"/>
<path d="M165.162 21.9592C165.087 20.3009 165.633 18.6742 166.693 17.3947C167.71 16.2234 169.186 15.6377 171.123 15.6377H185.187C185.544 15.6377 185.726 15.7766 185.726 16.0543V20.5947C185.742 20.7082 185.704 20.8227 185.623 20.9044C185.543 20.986 185.428 21.0255 185.314 21.0113H171.577C171.298 21.0113 171.165 21.1622 171.165 21.4641V27.0852C171.149 27.1984 171.187 27.3126 171.268 27.3935C171.349 27.4743 171.463 27.5122 171.577 27.4958H184.286C184.4 27.4815 184.514 27.5211 184.595 27.6027C184.675 27.6844 184.713 27.7989 184.697 27.9124V32.6581C184.713 32.7716 184.675 32.8861 184.595 32.9678C184.514 33.0494 184.4 33.0889 184.286 33.0747H171.577C171.463 33.0582 171.349 33.0962 171.268 33.177C171.187 33.2579 171.149 33.3721 171.165 33.4852V39.4747C171.147 39.5888 171.184 39.7049 171.265 39.7872C171.346 39.8695 171.462 39.9082 171.577 39.8913H185.284C185.398 39.8748 185.512 39.9128 185.593 39.9936C185.674 40.0745 185.712 40.1887 185.696 40.3018V44.8483C185.712 44.9614 185.674 45.0756 185.593 45.1565C185.512 45.2373 185.398 45.2752 185.284 45.2588H169.259C168.737 45.2543 168.226 45.1194 167.77 44.8664C167.267 44.611 166.812 44.2698 166.427 43.8581C166.041 43.4496 165.726 42.9803 165.495 42.4694C165.265 41.9863 165.145 41.4585 165.144 40.9237L165.162 21.9592Z" fill="#2C2F34"/>
<path d="M194.87 44.8483C194.731 45.0657 194.604 45.1925 194.477 45.2166C194.348 45.2466 194.216 45.2608 194.083 45.2589H189.49C189.329 45.2633 189.169 45.2491 189.012 45.2166C188.885 45.2166 188.824 45.0959 188.824 44.9329C188.857 44.7855 188.914 44.6447 188.994 44.5163L195.905 31.0521C195.975 30.9456 196.037 30.8346 196.093 30.72C196.144 30.6303 196.179 30.5322 196.195 30.4302C196.18 30.3337 196.145 30.2414 196.093 30.1585C196.026 30.0378 195.959 29.9351 195.905 29.8506L189.012 16.3804C188.933 16.2539 188.876 16.1152 188.842 15.9699C188.842 15.8068 188.903 15.7102 189.03 15.68C189.188 15.6506 189.348 15.6365 189.508 15.6378H194.101C194.234 15.6389 194.365 15.6531 194.495 15.68C194.622 15.7102 194.749 15.831 194.888 16.0544L199.155 24.1932L199.258 24.4166C199.302 24.5132 199.35 24.5615 199.403 24.5615C199.455 24.5615 199.504 24.5132 199.548 24.4166C199.59 24.3261 199.621 24.2476 199.651 24.1932L203.948 16.0544C204.087 15.831 204.214 15.7102 204.341 15.68C204.471 15.6531 204.602 15.6389 204.735 15.6378H209.328C209.488 15.6368 209.648 15.6509 209.806 15.68C209.927 15.7102 209.994 15.8068 209.994 15.9699C209.957 16.1142 209.9 16.2524 209.824 16.3804L202.877 29.8506C202.82 29.9351 202.76 30.0378 202.695 30.1585C202.64 30.2399 202.605 30.3329 202.592 30.4302C202.606 30.5329 202.641 30.6317 202.695 30.72C202.749 30.8344 202.809 30.9453 202.877 31.0521L209.794 44.5163C209.87 44.6462 209.928 44.7865 209.963 44.9329C209.963 45.0959 209.897 45.1925 209.776 45.2166C209.619 45.2488 209.458 45.2629 209.298 45.2589H204.704C204.572 45.2608 204.44 45.2466 204.311 45.2166C204.184 45.2166 204.057 45.0657 203.918 44.8483L199.651 36.7095C199.651 36.6551 199.59 36.5766 199.548 36.48C199.506 36.3834 199.457 36.3351 199.403 36.3351C199.348 36.3351 199.3 36.3834 199.258 36.48L199.155 36.7095L194.87 44.8483Z" fill="#2C2F34"/>
</svg>
