<svg width="43" height="51" viewBox="0 0 43 51" fill="none" xmlns="http://www.w3.org/2000/svg">
<circle cx="33.5" cy="41.5" r="9.5" fill="#FFBA72"/>
<g filter="url(#filter0_b)">
<path fill-rule="evenodd" clip-rule="evenodd" d="M18.0639 0.441331C14.1284 1.73528 11.6503 3.6366 9.93994 6.67472C9.14194 8.09206 8.75045 9.43906 8.6238 11.2029C8.39989 14.3205 9.46572 17.0055 12.5738 21.1529C13.8685 22.8804 14.0634 23.2666 14.1572 24.2896C14.2574 25.3845 14.0238 26.2637 13.4041 27.1216C12.2922 28.6613 10.4452 29.2883 8.46823 28.7969C6.63156 28.3404 5.36937 27.0018 4.578 24.6711C4.16949 23.4678 3.80792 21.2836 3.80792 20.0188C3.80792 19.5819 3.75398 19.2652 3.67964 19.2652C3.30955 19.2652 1.55436 22.4183 0.94773 24.1728C0.0845293 26.6694 -0.0103391 27.2604 0.000799765 30.0735C0.0105619 32.5548 0.0243292 32.6913 0.395291 34.0037C1.5068 37.9348 3.92394 41.4841 7.12117 43.8799C8.48825 44.9043 9.16822 45.3154 10.632 46.0019C16.1557 48.5931 22.3967 48.6667 28.0256 46.207C31.3217 44.7668 34.7229 41.8739 36.4363 39.0535C37.672 37.0194 38.5472 34.7498 38.8627 32.7609C39.0485 31.5898 39.0451 28.64 38.8565 27.3276C38.114 22.1628 34.7238 17.6753 29.1923 14.5353C28.7894 14.3066 26.5167 13.1452 25.5916 12.6951C22.4274 11.1559 20.7285 9.37748 19.8081 6.64083C19.5442 5.85598 19.5154 5.55486 19.519 3.60786C19.5226 1.66249 19.5503 1.38299 19.796 0.814654C19.946 0.46727 20.0395 0.138582 20.0036 0.0843659C19.888 -0.0904358 19.4186 -0.00396969 18.0639 0.441331ZM15.3223 7.59126C15.3223 7.9793 15.8103 9.22138 16.384 10.2934C17.488 12.3565 19.3234 14.2587 21.4549 15.5489C22.0499 15.9091 25.4113 17.6294 25.52 17.6294C25.6236 17.6294 28.1157 19.1332 28.7765 19.5944C31.573 21.5465 33.4081 24.1635 34.0965 27.1818C34.3362 28.2327 34.3633 28.6417 34.3164 30.5119C34.2689 32.4097 34.2258 32.7581 33.9249 33.6815C32.3393 38.5469 28.2436 42.1244 22.8475 43.3574C21.423 43.6828 17.9016 43.71 16.4487 43.4068C11.9524 42.4685 8.13744 39.6621 6.11204 35.8027C5.54371 34.7199 4.73044 32.3929 4.87225 32.2555C4.8939 32.2346 5.30353 32.378 5.78263 32.5743C8.65671 33.7519 11.6667 33.6518 14.2584 32.292C16.3527 31.1933 17.8313 29.4165 18.5838 27.0939C18.8092 26.3983 18.8688 25.9283 18.8726 24.8154C18.8806 22.4597 18.3943 21.2129 16.5096 18.7579C15.9254 17.9967 15.4474 17.3501 15.4474 17.3208C15.4474 17.2916 15.2516 16.9817 15.0121 16.6323C13.783 14.8384 13.3807 13.6822 13.3872 11.9623C13.3941 10.191 13.698 9.20969 14.6629 7.84364C15.0925 7.23546 15.3223 7.14748 15.3223 7.59126Z" fill="#FFBA72" fill-opacity="0.3"/>
</g>
<defs>
<filter id="filter0_b" x="-19" y="-19" width="77" height="86" filterUnits="userSpaceOnUse" color-interpolation-filters="sRGB">
<feFlood flood-opacity="0" result="BackgroundImageFix"/>
<feGaussianBlur in="BackgroundImage" stdDeviation="9.5"/>
<feComposite in2="SourceAlpha" operator="in" result="effect1_backgroundBlur"/>
<feBlend mode="normal" in="SourceGraphic" in2="effect1_backgroundBlur" result="shape"/>
</filter>
</defs>
</svg>
