<svg width="139" height="49" viewBox="0 0 139 49" fill="none" xmlns="http://www.w3.org/2000/svg">
<path d="M29.2397 36.4976C29.2397 36.4976 29.828 36.1058 29.828 34.7345C29.828 33.3633 29.0436 32.9715 29.0436 32.9715H26.2982V0.844856C26.2982 0.844856 26.1021 0.0612793 24.5332 0.0612793C22.9644 0.0612793 22.7683 0.84491 22.7683 0.84491V14.9493C21.5771 13.3393 20.1356 12.2146 18.7341 11.4796C16.9823 10.6046 15.1604 10.1671 13.2684 10.1671C9.65957 10.1671 6.88407 11.4231 4.33475 13.578C1.78542 15.7328 0.0205078 19.7921 0.0205078 23.712C0.0205078 27.457 1.78542 30.6208 4.33397 33.1095C6.88407 35.3222 9.7116 36.4976 13.3554 36.4976C15.2825 36.4976 17.1645 36.1622 18.8463 35.3222C20.2478 34.6222 21.6471 33.8189 22.7683 32.3839V36.4976L29.2397 36.4976ZM22.7683 23.5686C22.7683 26.5436 21.7397 28.1081 20.0229 30.0331C18.3061 31.9581 16.0883 32.9715 13.3554 32.9715C10.7627 32.9715 8.06068 31.7961 6.68797 30.4249C5.01822 28.7569 3.55034 26.512 3.55034 23.712C3.55034 20.772 4.72695 18.0835 6.75151 16.2571C8.64899 14.5575 10.7627 13.7739 13.3554 13.7739C15.9832 13.7739 18.236 14.7523 20.0229 16.7123C21.8448 18.6723 22.7683 20.6287 22.7683 23.5686Z" fill="#2C2F34"/>
<path d="M37.2819 2.62984C37.2819 1.99985 37.0367 1.40485 36.5462 0.844856C35.9856 0.354859 35.39 0.109861 34.7593 0.109861C34.1286 0.109861 33.533 0.354859 32.9724 0.844856C32.4819 1.40485 32.2366 2.01735 32.2366 2.68234C32.2366 3.31234 32.4819 3.90733 32.9724 4.46733C33.533 4.95733 34.1286 5.20233 34.7593 5.20233C35.39 5.20233 35.9856 4.95733 36.5462 4.46733C37.0367 3.90733 37.2819 3.29484 37.2819 2.62984ZM40.0253 36.4976C40.0253 36.4976 40.8097 36.3017 40.8097 34.7345C40.8097 33.1674 40.0253 32.9715 40.0253 32.9715H37.2799V10.2478H31.0046C31.0046 10.2478 30.2202 10.7833 30.2202 12.0108C30.2202 13.2383 31.0046 13.7739 31.0046 13.7739H33.75V36.4976H40.0253Z" fill="#2C2F34"/>
<path d="M70.6172 13.7739C70.6172 13.7739 71.4016 13.3821 71.4016 12.0108C71.4016 10.6396 70.6172 10.2478 70.6172 10.2478H64.3419V14.9492C62.9404 13.0593 61.539 12.131 60.1375 11.431C58.4557 10.591 56.7039 10.171 54.882 10.171C51.3432 10.171 47.5313 11.619 45.5161 13.7739C43.0285 16.4339 41.2019 18.8671 41.2019 23.9604C41.2019 28.4659 43.3198 30.7159 45.7374 33.1659C48.225 35.6509 51.2557 36.4976 54.8294 36.4976C56.7564 36.4976 58.724 35.8404 60.616 34.9304C62.0525 34.1955 63.2558 33.3361 64.3419 31.7961V36.8894C64.3419 39.4794 63.501 41.5133 61.8193 42.8783C60.1025 44.2783 57.8776 44.9783 55.1447 44.9783C54.7243 44.9783 54.2163 44.9258 53.6206 44.8208C53.0601 44.7508 52.4995 44.6633 51.9389 44.5583C51.4133 44.4533 50.9228 44.3483 50.4673 44.2433C50.4673 44.2433 49.3974 44.4322 49.2421 45.7046C49.0868 46.9771 49.5213 47.3933 49.5213 47.3933C49.9768 47.4983 50.5024 47.6208 51.098 47.7608C51.7287 47.9008 52.3768 48.0233 53.0425 48.1283C53.7433 48.2333 54.3564 48.2858 54.882 48.2858C58.701 48.2858 61.8193 47.2358 64.2368 45.1358C66.6894 43.0358 67.8717 40.4244 67.8717 36.8894V13.7739H70.6172ZM63.9497 23.7645C63.9497 26.6345 62.9912 28.304 61.2043 30.229C59.8316 31.7078 57.4922 32.9715 54.8294 32.9715C52.1316 32.9715 50.4187 32.5797 48.3126 30.9609C46.5958 29.0359 44.7317 28.0742 44.7317 23.7645C44.7317 19.2589 46.2786 18.1196 48.0655 16.1246C50.0265 14.1657 52.2892 13.7739 54.882 13.7739C57.4397 13.7739 59.5434 14.7173 61.4004 16.7123C63.2223 18.7423 63.9497 20.8945 63.9497 23.7645Z" fill="#2C2F34"/>
<path d="M101.209 13.7739C101.209 13.7739 101.993 13.1862 101.993 12.0108C101.993 10.8355 101.209 10.2478 101.209 10.2478H94.9338V14.9492C93.5323 13.0593 91.8674 12.131 90.4659 11.431C88.7841 10.591 87.678 10.171 85.2104 10.171C81.6716 10.171 78.4613 11.2273 75.7158 13.9698C73.2282 16.6298 71.7938 19.9495 71.7938 23.7645C71.7938 27.4745 73.6482 30.7159 76.0657 33.1659C78.5533 35.6509 81.555 36.4976 85.1287 36.4976C87.0557 36.4976 88.9237 36.0363 90.8157 35.1263C92.2522 34.3913 93.8476 33.3361 94.9338 31.7961V36.8894C94.9338 39.4794 93.8294 41.5133 92.1477 42.8783C90.4308 44.2783 88.206 44.9783 85.4731 44.9783C85.0527 44.9783 84.5446 44.9258 83.949 44.8208C83.3884 44.7508 82.8278 44.6633 82.2673 44.5583C81.7417 44.4533 81.2512 44.3483 80.7957 44.2433C80.7957 44.2433 79.834 44.7252 79.6132 45.6608C79.2457 46.88 79.8497 47.3933 79.8497 47.3933C79.8497 47.3933 80.8307 47.6208 81.4264 47.7608C82.057 47.9008 82.7052 48.0233 83.3709 48.1283C84.0716 48.2333 84.6848 48.2858 85.2104 48.2858C89.0294 48.2858 92.1477 47.2358 94.5652 45.1358C97.0178 43.0358 98.4636 40.4244 98.4636 36.8894V13.7739H101.209ZM94.5416 23.5686C94.5416 26.4386 93.5831 28.1081 91.7962 30.0331C90.0093 31.9231 87.7915 32.9715 85.1287 32.9715C82.4309 32.9715 80.6184 32.3838 78.6574 30.6208C76.9405 28.6958 75.3236 26.6695 75.3236 23.7645C75.3236 20.8595 76.5002 18.0835 78.4613 16.3205C80.2481 14.3255 82.536 13.7739 85.1287 13.7739C87.6864 13.7739 89.8352 14.7533 91.7962 16.5164C93.7572 18.2794 94.5416 20.6986 94.5416 23.5686Z" fill="#2C2F34"/>
<path d="M137.292 36.3017C137.292 36.3017 138.272 35.5181 138.076 34.3428C137.872 33.1207 136.9 32.9715 136.9 32.9715L133.958 33.5592C133.362 33.5592 132.901 33.2865 132.585 32.9715C132.305 32.6215 132.193 32.3305 132.193 31.4555V13.7739H137.292C137.292 13.7739 138.076 13.3821 138.076 12.0108C138.076 10.6396 137.292 10.2478 137.292 10.2478H132.193V3.97916C132.193 3.97916 131.605 3.19559 130.428 3.19559C129.252 3.19559 128.663 3.97916 128.663 3.97916V10.2478H125.918C125.918 10.2478 125.133 11.0314 125.133 12.0108C125.133 12.9903 125.918 13.7739 125.918 13.7739H128.663V31.992C128.663 32.797 128.684 33.9087 128.859 34.5387C129.07 35.1686 129.311 35.3359 129.731 35.7909C130.572 36.6659 131.723 36.8894 133.37 36.8894L137.292 36.3017Z" fill="#2C2F34"/>
<path d="M124.683 14.1031C121.266 11.4309 118.616 10.0525 114.706 10.2478C110.797 10.443 107.856 12.384 105.525 15.0796C103.125 17.8544 102.138 20.9716 102.462 24.3895C102.786 27.8074 103.808 30.8977 106.665 33.3633C109.549 35.8517 112.755 36.8894 116.078 36.8894C119.539 36.8894 123.51 34.4133 125.27 32.0698C125.478 31.793 125.299 30.8203 124.707 30.229C123.726 29.2495 122.924 29.531 122.924 29.531C120.773 31.6792 119.405 32.6557 116.863 33.0463C114.273 33.4444 112.162 33.0742 109.825 31.2887L124.683 14.1031ZM119.216 14.7533L107.45 28.6618C106.081 26.7089 106.111 25.8205 105.916 24.0629C105.7 22.122 106.215 19.5636 108.066 17.4231C109.826 15.3882 111.585 14.4937 113.344 14.1031C115.709 13.5782 117.003 13.3054 119.216 14.7533Z" fill="#2C2F34"/>
</svg>
