<svg width="139" height="49" viewBox="0 0 139 49" fill="none" xmlns="http://www.w3.org/2000/svg">
<path d="M29.2397 36.4974C29.2397 36.4974 29.828 36.1056 29.828 34.7343C29.828 33.363 29.0436 32.9713 29.0436 32.9713H26.2982V0.844612C26.2982 0.844612 26.1021 0.0610352 24.5332 0.0610352C22.9644 0.0610352 22.7683 0.844666 22.7683 0.844666V14.949C21.5771 13.3391 20.1356 12.2144 18.7341 11.4794C16.9823 10.6044 15.1604 10.1669 13.2684 10.1669C9.65957 10.1669 6.88407 11.4229 4.33475 13.5777C1.78542 15.7326 0.0205078 19.7918 0.0205078 23.7118C0.0205078 27.4568 1.78542 30.6205 4.33397 33.1092C6.88407 35.322 9.7116 36.4974 13.3554 36.4974C15.2825 36.4974 17.1645 36.162 18.8463 35.322C20.2478 34.622 21.6471 33.8186 22.7683 32.3836V36.4974L29.2397 36.4974ZM22.7683 23.5684C22.7683 26.5434 21.7397 28.1079 20.0229 30.0328C18.3061 31.9578 16.0883 32.9713 13.3554 32.9713C10.7627 32.9713 8.06068 31.7959 6.68797 30.4246C5.01822 28.7567 3.55034 26.5118 3.55034 23.7118C3.55034 20.7718 4.72695 18.0833 6.75151 16.2568C8.64899 14.5572 10.7627 13.7736 13.3554 13.7736C15.9832 13.7736 18.236 14.7521 20.0229 16.712C21.8448 18.672 22.7683 20.6284 22.7683 23.5684Z" fill="white"/>
<path d="M37.2819 2.6296C37.2819 1.9996 37.0367 1.40461 36.5462 0.844612C35.9856 0.354615 35.39 0.109617 34.7593 0.109617C34.1286 0.109617 33.533 0.354615 32.9724 0.844612C32.4819 1.40461 32.2366 2.0171 32.2366 2.6821C32.2366 3.31209 32.4819 3.90709 32.9724 4.46709C33.533 4.95708 34.1286 5.20208 34.7593 5.20208C35.39 5.20208 35.9856 4.95708 36.5462 4.46709C37.0367 3.90709 37.2819 3.29459 37.2819 2.6296ZM40.0253 36.4973C40.0253 36.4973 40.8097 36.3015 40.8097 34.7343C40.8097 33.1671 40.0253 32.9713 40.0253 32.9713H37.2799V10.2476H31.0046C31.0046 10.2476 30.2202 10.7831 30.2202 12.0106C30.2202 13.2381 31.0046 13.7736 31.0046 13.7736H33.75V36.4973H40.0253Z" fill="white"/>
<path d="M70.6172 13.7736C70.6172 13.7736 71.4016 13.3818 71.4016 12.0106C71.4016 10.6393 70.6172 10.2475 70.6172 10.2475H64.3419V14.949C62.9404 13.059 61.539 12.1308 60.1375 11.4308C58.4557 10.5908 56.7039 10.1708 54.882 10.1708C51.3432 10.1708 47.5313 11.6188 45.5161 13.7736C43.0285 16.4336 41.2019 18.8669 41.2019 23.9601C41.2019 28.4657 43.3198 30.7157 45.7374 33.1656C48.225 35.6506 51.2557 36.4974 54.8294 36.4974C56.7564 36.4974 58.724 35.8402 60.616 34.9302C62.0525 34.1952 63.2558 33.3359 64.3419 31.7959V36.8891C64.3419 39.4791 63.501 41.5131 61.8193 42.8781C60.1025 44.2781 57.8776 44.9781 55.1447 44.9781C54.7243 44.9781 54.2163 44.9256 53.6206 44.8206C53.0601 44.7506 52.4995 44.6631 51.9389 44.5581C51.4133 44.4531 50.9228 44.3481 50.4673 44.2431C50.4673 44.2431 49.3974 44.4319 49.2421 45.7044C49.0868 46.9768 49.5213 47.393 49.5213 47.393C49.9768 47.498 50.5024 47.6205 51.098 47.7605C51.7287 47.9005 52.3768 48.023 53.0425 48.128C53.7433 48.233 54.3564 48.2855 54.882 48.2855C58.701 48.2855 61.8193 47.2355 64.2368 45.1356C66.6894 43.0356 67.8717 40.4241 67.8717 36.8891V13.7736H70.6172ZM63.9497 23.7642C63.9497 26.6342 62.9912 28.3038 61.2043 30.2287C59.8316 31.7076 57.4922 32.9713 54.8294 32.9713C52.1316 32.9713 50.4187 32.5795 48.3126 30.9606C46.5958 29.0357 44.7317 28.0739 44.7317 23.7642C44.7317 19.2587 46.2786 18.1193 48.0655 16.1244C50.0265 14.1654 52.2892 13.7736 54.882 13.7736C57.4397 13.7736 59.5434 14.7171 61.4004 16.712C63.2223 18.742 63.9497 20.8943 63.9497 23.7642Z" fill="white"/>
<path d="M101.209 13.7736C101.209 13.7736 101.993 13.1859 101.993 12.0106C101.993 10.8352 101.209 10.2475 101.209 10.2475H94.9338V14.949C93.5323 13.059 91.8674 12.1308 90.4659 11.4308C88.7841 10.5908 87.678 10.1708 85.2104 10.1708C81.6716 10.1708 78.4613 11.227 75.7158 13.9695C73.2282 16.6295 71.7938 19.9493 71.7938 23.7642C71.7938 27.4742 73.6482 30.7157 76.0657 33.1656C78.5533 35.6506 81.555 36.4974 85.1287 36.4974C87.0557 36.4974 88.9237 36.0361 90.8157 35.1261C92.2522 34.3911 93.8476 33.3359 94.9338 31.7959V36.8891C94.9338 39.4791 93.8294 41.5131 92.1477 42.8781C90.4308 44.2781 88.206 44.9781 85.4731 44.9781C85.0527 44.9781 84.5446 44.9256 83.949 44.8206C83.3884 44.7506 82.8278 44.6631 82.2673 44.5581C81.7417 44.4531 81.2512 44.3481 80.7957 44.2431C80.7957 44.2431 79.834 44.7249 79.6132 45.6605C79.2457 46.8797 79.8497 47.393 79.8497 47.393C79.8497 47.393 80.8307 47.6205 81.4264 47.7605C82.057 47.9005 82.7052 48.023 83.3709 48.128C84.0716 48.233 84.6848 48.2855 85.2104 48.2855C89.0294 48.2855 92.1477 47.2355 94.5652 45.1356C97.0178 43.0356 98.4636 40.4241 98.4636 36.8891V13.7736H101.209ZM94.5416 23.5683C94.5416 26.4383 93.5831 28.1079 91.7962 30.0328C90.0093 31.9228 87.7915 32.9713 85.1287 32.9713C82.4309 32.9713 80.6184 32.3836 78.6574 30.6205C76.9405 28.6955 75.3236 26.6692 75.3236 23.7642C75.3236 20.8593 76.5002 18.0833 78.4613 16.3203C80.2481 14.3253 82.536 13.7736 85.1287 13.7736C87.6864 13.7736 89.8352 14.7531 91.7962 16.5162C93.7572 18.2792 94.5416 20.6984 94.5416 23.5683Z" fill="white"/>
<path d="M137.292 36.3015C137.292 36.3015 138.272 35.5179 138.076 34.3425C137.872 33.1204 136.9 32.9713 136.9 32.9713L133.958 33.5589C133.362 33.5589 132.901 33.2863 132.585 32.9713C132.305 32.6213 132.193 32.3302 132.193 31.4552V13.7736H137.292C137.292 13.7736 138.076 13.3818 138.076 12.0106C138.076 10.6393 137.292 10.2475 137.292 10.2475H132.193V3.97892C132.193 3.97892 131.605 3.19534 130.428 3.19534C129.252 3.19534 128.663 3.97892 128.663 3.97892V10.2475H125.918C125.918 10.2475 125.133 11.0311 125.133 12.0106C125.133 12.9901 125.918 13.7736 125.918 13.7736H128.663V31.9918C128.663 32.7968 128.684 33.9084 128.859 34.5384C129.07 35.1684 129.311 35.3356 129.731 35.7906C130.572 36.6656 131.723 36.8891 133.37 36.8891L137.292 36.3015Z" fill="white"/>
<path d="M124.683 14.1029C121.266 11.4306 118.616 10.0522 114.706 10.2475C110.797 10.4428 107.856 12.3838 105.525 15.0793C103.125 17.8542 102.138 20.9714 102.462 24.3893C102.786 27.8072 103.808 30.8975 106.665 33.363C109.549 35.8514 112.755 36.8891 116.078 36.8891C119.539 36.8891 123.51 34.4131 125.27 32.0696C125.478 31.7928 125.299 30.82 124.707 30.2287C123.726 29.2493 122.924 29.5308 122.924 29.5308C120.773 31.679 119.405 32.6554 116.863 33.046C114.273 33.4441 112.162 33.0739 109.825 31.2884L124.683 14.1029ZM119.216 14.7531L107.45 28.6616C106.081 26.7087 106.111 25.8203 105.916 24.0627C105.7 22.1217 106.215 19.5634 108.066 17.4228C109.826 15.3879 111.585 14.4935 113.344 14.1029C115.709 13.5779 117.003 13.3052 119.216 14.7531Z" fill="white"/>
</svg>
