<svg width="16" height="16" viewBox="0 0 16 16" fill="none" xmlns="http://www.w3.org/2000/svg">
<path d="M4.8125 0.875C3.47302 0.875 2.375 1.97302 2.375 3.3125V11.75H1.0625C0.551152 11.75 0.125 12.1762 0.125 12.6875V13.4375C0.125 14.3628 0.887187 15.125 1.8125 15.125H11.9375C12.8628 15.125 13.625 14.3628 13.625 13.4375V4.25H14.9375C15.4488 4.25 15.875 3.82385 15.875 3.3125V2.5625C15.875 1.66747 15.1602 0.931428 14.2761 0.883789C14.2469 0.878522 14.2172 0.875583 14.1875 0.875H4.8125ZM4.8125 2H12.615C12.5505 2.17793 12.5 2.36353 12.5 2.5625V3.59521C12.4901 3.6556 12.4901 3.7172 12.5 3.77759V13.4375C12.5 13.7549 12.2549 14 11.9375 14C11.6201 14 11.375 13.7549 11.375 13.4375V12.6875C11.375 12.1762 10.9488 11.75 10.4375 11.75H3.5V3.3125C3.5 2.58123 4.08123 2 4.8125 2ZM14.1875 2C14.5049 2 14.75 2.24506 14.75 2.5625V3.125H13.625V2.5625C13.625 2.24506 13.8701 2 14.1875 2ZM5.5625 3.875C5.48796 3.87395 5.41396 3.88772 5.34479 3.91551C5.27562 3.94331 5.21266 3.98457 5.15958 4.03691C5.1065 4.08925 5.06435 4.15161 5.03557 4.22038C5.0068 4.28915 4.99199 4.36295 4.99199 4.4375C4.99199 4.51205 5.0068 4.58585 5.03557 4.65462C5.06435 4.72339 5.1065 4.78575 5.15958 4.83809C5.21266 4.89043 5.27562 4.93169 5.34479 4.95949C5.41396 4.98728 5.48796 5.00105 5.5625 5H10.4375C10.512 5.00105 10.586 4.98728 10.6552 4.95949C10.7244 4.93169 10.7873 4.89043 10.8404 4.83809C10.8935 4.78575 10.9357 4.72339 10.9644 4.65462C10.9932 4.58585 11.008 4.51205 11.008 4.4375C11.008 4.36295 10.9932 4.28915 10.9644 4.22038C10.9357 4.15161 10.8935 4.08925 10.8404 4.03691C10.7873 3.98457 10.7244 3.94331 10.6552 3.91551C10.586 3.88772 10.512 3.87395 10.4375 3.875H5.5625ZM5.5625 6.5C5.48796 6.49895 5.41396 6.51272 5.34479 6.54051C5.27562 6.56831 5.21266 6.60957 5.15958 6.66191C5.1065 6.71425 5.06435 6.77661 5.03557 6.84538C5.0068 6.91415 4.99199 6.98795 4.99199 7.0625C4.99199 7.13705 5.0068 7.21085 5.03557 7.27962C5.06435 7.34839 5.1065 7.41075 5.15958 7.46309C5.21266 7.51543 5.27562 7.55669 5.34479 7.58449C5.41396 7.61228 5.48796 7.62605 5.5625 7.625H10.4375C10.512 7.62605 10.586 7.61228 10.6552 7.58449C10.7244 7.55669 10.7873 7.51543 10.8404 7.46309C10.8935 7.41075 10.9357 7.34839 10.9644 7.27962C10.9932 7.21085 11.008 7.13705 11.008 7.0625C11.008 6.98795 10.9932 6.91415 10.9644 6.84538C10.9357 6.77661 10.8935 6.71425 10.8404 6.66191C10.7873 6.60957 10.7244 6.56831 10.6552 6.54051C10.586 6.51272 10.512 6.49895 10.4375 6.5H5.5625ZM5.5625 9.125C5.48796 9.12395 5.41396 9.13772 5.34479 9.16551C5.27562 9.19331 5.21266 9.23457 5.15958 9.28691C5.1065 9.33925 5.06435 9.40161 5.03557 9.47038C5.0068 9.53915 4.99199 9.61296 4.99199 9.6875C4.99199 9.76204 5.0068 9.83585 5.03557 9.90462C5.06435 9.97339 5.1065 10.0358 5.15958 10.0881C5.21266 10.1404 5.27562 10.1817 5.34479 10.2095C5.41396 10.2373 5.48796 10.2511 5.5625 10.25H9.6875C9.76204 10.2511 9.83604 10.2373 9.90521 10.2095C9.97438 10.1817 10.0373 10.1404 10.0904 10.0881C10.1435 10.0358 10.1857 9.97339 10.2144 9.90462C10.2432 9.83585 10.258 9.76204 10.258 9.6875C10.258 9.61296 10.2432 9.53915 10.2144 9.47038C10.1857 9.40161 10.1435 9.33925 10.0904 9.28691C10.0373 9.23457 9.97438 9.19331 9.90521 9.16551C9.83604 9.13772 9.76204 9.12395 9.6875 9.125H5.5625ZM1.25 12.875H2.84521C2.9056 12.8849 2.9672 12.8849 3.02759 12.875H10.25V13.4375C10.25 13.6365 10.3005 13.8221 10.365 14H1.8125C1.49506 14 1.25 13.7549 1.25 13.4375V12.875Z" fill="black"/>
</svg>
