<svg width="16" height="16" viewBox="0 0 16 16" fill="none" xmlns="http://www.w3.org/2000/svg">
<path d="M5.1875 0.875C5.03832 0.875015 4.89525 0.934283 4.78977 1.03977C4.68428 1.14525 4.62501 1.28832 4.625 1.4375V4.25H3.3125C1.76581 4.25 0.5 5.51581 0.5 7.0625V12.3125C0.5 13.8592 1.76581 15.125 3.3125 15.125H12.6875C14.2342 15.125 15.5 13.8592 15.5 12.3125V7.0625C15.5 5.51581 14.2342 4.25 12.6875 4.25H11.375V1.4375C11.375 1.28832 11.3157 1.14525 11.2102 1.03977C11.1047 0.934283 10.9617 0.875015 10.8125 0.875H5.1875ZM5.75 2H10.25V4.25H5.75V2ZM3.3125 5.375H5.1875H10.8125H12.6875C13.6263 5.375 14.375 6.12369 14.375 7.0625V12.3125C14.375 13.2513 13.6263 14 12.6875 14H3.3125C2.37369 14 1.625 13.2513 1.625 12.3125V7.0625C1.625 6.12369 2.37369 5.375 3.3125 5.375Z" fill="black"/>
</svg>
