<svg width="16" height="16" viewBox="0 0 16 16" fill="none" xmlns="http://www.w3.org/2000/svg">
<path d="M8 0.5C3.86461 0.5 0.5 3.86461 0.5 8C0.5 9.22824 0.823515 10.3756 1.34814 11.3992L0.535156 14.3105C0.345799 14.9868 1.01447 15.6547 1.69092 15.4656L4.60376 14.6526C5.62664 15.1765 6.77261 15.5 8 15.5C12.1354 15.5 15.5 12.1354 15.5 8C15.5 3.86461 12.1354 0.5 8 0.5ZM8 1.625C11.5274 1.625 14.375 4.47264 14.375 8C14.375 11.5274 11.5274 14.375 8 14.375C6.87389 14.375 5.8221 14.0819 4.90405 13.5701C4.77443 13.4977 4.62147 13.4796 4.47852 13.5195L1.7085 14.293L2.48193 11.5244C2.52189 11.3815 2.50372 11.2285 2.4314 11.0989C1.91887 10.1801 1.625 9.12669 1.625 8C1.625 4.47264 4.47264 1.625 8 1.625ZM7.99121 3.86694C7.84215 3.86927 7.70012 3.93067 7.5963 4.03765C7.49248 4.14463 7.43536 4.28844 7.4375 4.4375V8.9375C7.43645 9.01204 7.45022 9.08604 7.47801 9.15521C7.50581 9.22438 7.54707 9.28734 7.59941 9.34042C7.65175 9.3935 7.71411 9.43565 7.78288 9.46443C7.85165 9.4932 7.92545 9.50801 8 9.50801C8.07455 9.50801 8.14835 9.4932 8.21712 9.46443C8.28589 9.43565 8.34825 9.3935 8.40059 9.34042C8.45293 9.28734 8.49419 9.22438 8.52199 9.15521C8.54978 9.08604 8.56355 9.01204 8.5625 8.9375V4.4375C8.56358 4.36221 8.54953 4.28748 8.5212 4.21772C8.49286 4.14796 8.45081 4.0846 8.39753 4.03139C8.34426 3.97818 8.28084 3.93621 8.21105 3.90796C8.14125 3.87972 8.0665 3.86577 7.99121 3.86694ZM8 10.625C7.80109 10.625 7.61032 10.704 7.46967 10.8447C7.32902 10.9853 7.25 11.1761 7.25 11.375C7.25 11.5739 7.32902 11.7647 7.46967 11.9053C7.61032 12.046 7.80109 12.125 8 12.125C8.19891 12.125 8.38968 12.046 8.53033 11.9053C8.67098 11.7647 8.75 11.5739 8.75 11.375C8.75 11.1761 8.67098 10.9853 8.53033 10.8447C8.38968 10.704 8.19891 10.625 8 10.625Z" fill="black"/>
</svg>
