<svg width="24" height="24" viewBox="0 0 24 24" fill="none" xmlns="http://www.w3.org/2000/svg">
<path d="M7.81948 14.46L6.67261 18.9668C6.32826 20.32 7.77575 21.4445 9.06491 20.8254L10.9977 19.8972C11.6286 19.5942 12.3694 19.5942 13.0003 19.8972L14.9331 20.8254C16.2223 21.4445 17.6698 20.32 17.3254 18.9668L16.1786 14.46" stroke="#FFBA72" stroke-width="1.5"/>
<path d="M5.75486 7.16223C6.22538 5.21947 7.79162 3.70254 9.79753 3.24683C11.2462 2.91772 12.7538 2.91772 14.2025 3.24683C16.2084 3.70254 17.7746 5.21947 18.2451 7.16223C18.585 8.56527 18.585 10.0254 18.2451 11.4285C17.7746 13.3712 16.2084 14.8882 14.2025 15.3439C12.7538 15.673 11.2462 15.673 9.79754 15.3439C7.79162 14.8882 6.22538 13.3712 5.75486 11.4285C5.41505 10.0254 5.41505 8.56527 5.75486 7.16223Z" stroke="#2C2F34" stroke-width="1.5"/>
</svg>
