<?xml version="1.0" encoding="utf-8"?><svg xmlns="http://www.w3.org/2000/svg" xmlns:xlink="http://www.w3.org/1999/xlink"><symbol viewBox="0 0 22 24" id="basket" xmlns="http://www.w3.org/2000/svg"><g clip-path="url(#aclip0)"><path d="M10.363 18.443a2.046 2.046 0 00-2.045 2.042 2.046 2.046 0 004.09 0 2.046 2.046 0 00-2.045-2.042zm6.134 0a2.046 2.046 0 00-2.045 2.042 2.046 2.046 0 004.089 0 2.046 2.046 0 00-2.044-2.042zm3.978-8.199L7.413 6.891a.614.614 0 00-.75.73L8.67 16.4h-.786L5.482 5.895a.613.613 0 00-.474-.464l-4.27-.882A.614.614 0 00.489 5.75l3.885.802L6.797 17.15a.613.613 0 00.598.477h12.07a.615.615 0 00.607-.53l.858-6.175a.613.613 0 00-.455-.678zm-8.14 3.91a.613.613 0 01-1.227 0v-2.696a.613.613 0 011.227 0v2.696zm2.625 0a.613.613 0 01-1.227 0v-1.88a.613.613 0 011.227 0v1.88zm2.625 0a.613.613 0 01-1.227 0v-1.226a.613.613 0 011.227 0v1.226z"/></g><path fill-rule="evenodd" clip-rule="evenodd" d="M16.268 4.568a2.996 2.996 0 00-1.693-.523c-.627 0-1.21.193-1.693.523-.28-.843-.492-1.752-.492-2.383C12.39.98 13.37 0 14.575 0s2.185.98 2.185 2.185c0 .631-.212 1.54-.492 2.383zm-4.722 2.274l.024.006v-.011l-.024.005zm4.972 1.217c-1.333-.33-2.766-.681-4.129-1.013a2.185 2.185 0 114.129 1.013zm4.436 1.103c-.866-.217-2.155-.538-3.618-.9a2.995 2.995 0 00.243-1.425c.87.18 1.762.45 2.308.765.596.344.969.928 1.067 1.56zM9.869 6.439c-.36-.086-.706-.167-1.03-.243a2.19 2.19 0 01-.376-2.667 2.188 2.188 0 013.147-.7c.098.738.338 1.599.61 2.353a3.01 3.01 0 00-.449.774c-.628.113-1.305.278-1.902.483zm10.124.075a3.43 3.43 0 01-.217.114c-.696-.295-1.587-.526-2.397-.672a3.01 3.01 0 00-.449-.774c.262-.727.494-1.553.599-2.273.095-.067.189-.128.278-.18a2.188 2.188 0 012.986.8 2.188 2.188 0 01-.8 2.985z"/><defs><clipPath id="aclip0"><path transform="translate(0 3.064)" d="M0 0h20.936v20.936H0z"/></clipPath></defs></symbol><symbol viewBox="0 0 344.96 344.96" id="check" xmlns="http://www.w3.org/2000/svg"><g data-name="Слой 2"><path d="M321.85 86.24l-40-23.11-23.1-40H212.5L172.48 0l-40 23.11H86.24l-23.11 40-40 23.1v46.21L0 172.48l23.11 40v46.21l40 23.11 23.11 40h46.21l40 23.1 40-23.11h46.21l23.11-40 40-23.11V212.5l23.11-40-23.11-40V86.24zM156.91 243.07a16.79 16.79 0 01-23.34 0l-50.45-50.44a16.19 16.19 0 010-22.89l13.35-13.35a16.19 16.19 0 0122.89 0l25.87 25.87 80.34-80.35a16.19 16.19 0 0122.89 0l13.35 13.35a16.19 16.19 0 010 22.89z" data-name="Capa 1"/></g></symbol><symbol viewBox="0 0 6 8" id="chevron-right" xmlns="http://www.w3.org/2000/svg"><path d="M1 1l3 2.862-3 2.862"/></symbol><symbol viewBox="0 0 20 34" id="chevron-right-white" xmlns="http://www.w3.org/2000/svg"><path d="M1.833 1.5l15.5 15.5-15.5 15.5"/></symbol><symbol viewBox="0 0 21 21" id="document" xmlns="http://www.w3.org/2000/svg"><path d="M5.469 1.75A1.98 1.98 0 003.5 3.719V17.28c0 1.08.89 1.969 1.969 1.969H15.53a1.98 1.98 0 001.969-1.969V8.094a.66.66 0 00-.192-.464l-.007-.007-5.68-5.68a.656.656 0 00-.465-.193H5.47zm0 1.313H10.5V6.78c0 1.08.89 1.969 1.969 1.969h3.719v8.531c0 .37-.286.657-.657.657H5.47a.646.646 0 01-.657-.657V3.72c0-.37.286-.656.657-.656zm6.343.927l3.447 3.447h-2.79a.646.646 0 01-.656-.656v-2.79zm-4.156 6.947a.656.656 0 100 1.313h5.688a.655.655 0 100-1.313H7.656zm0 3.063a.656.656 0 100 1.313h3.938a.655.655 0 100-1.313H7.656z"/></symbol><symbol viewBox="0 0 13 24" id="fb" xmlns="http://www.w3.org/2000/svg"><path d="M12.078 13.5l.656-4.313H8.563V6.376c0-1.219.562-2.344 2.437-2.344h1.922V.328S11.187 0 9.547 0C6.125 0 3.875 2.11 3.875 5.86v3.327H.031V13.5h3.844V24h4.688V13.5h3.515z"/></symbol><symbol viewBox="0 0 22 22" id="instagram" xmlns="http://www.w3.org/2000/svg"><path d="M11.5 5.61c-3 0-5.39 2.437-5.39 5.39 0 3 2.39 5.39 5.39 5.39A5.39 5.39 0 0016.89 11c0-2.953-2.437-5.39-5.39-5.39zm0 8.906A3.51 3.51 0 017.984 11c0-1.922 1.547-3.469 3.516-3.469A3.46 3.46 0 0114.969 11c0 1.969-1.547 3.516-3.469 3.516zm6.844-9.094a1.26 1.26 0 00-1.266-1.266 1.26 1.26 0 00-1.265 1.266 1.26 1.26 0 001.265 1.266 1.26 1.26 0 001.266-1.266zm3.562 1.266C21.813 5 21.438 3.5 20.22 2.28 19 1.062 17.5.687 15.812.594 14.079.5 8.875.5 7.142.594 5.453.688 4 1.063 2.734 2.28 1.516 3.5 1.141 5 1.047 6.687c-.094 1.735-.094 6.938 0 8.672.094 1.688.469 3.141 1.687 4.407 1.266 1.218 2.72 1.593 4.407 1.687 1.734.094 6.937.094 8.671 0 1.688-.094 3.188-.469 4.407-1.687 1.218-1.266 1.593-2.72 1.687-4.407.094-1.734.094-6.937 0-8.671zm-2.25 10.5c-.328.937-1.078 1.64-1.968 2.015-1.407.563-4.688.422-6.188.422-1.547 0-4.828.14-6.188-.422a3.554 3.554 0 01-2.015-2.015c-.563-1.36-.422-4.641-.422-6.188 0-1.5-.14-4.781.422-6.188a3.616 3.616 0 012.015-1.968c1.36-.563 4.641-.422 6.188-.422 1.5 0 4.781-.14 6.188.422.89.328 1.593 1.078 1.968 1.969.563 1.406.422 4.687.422 6.187 0 1.547.14 4.828-.422 6.188z"/></symbol><symbol viewBox="0 0 184 184" id="pattern" xmlns="http://www.w3.org/2000/svg"><path fill-opacity=".2" d="M0 6.98L6.979 0l6.979 6.98-6.98 6.978zm18.893 0L25.872 0l6.979 6.98-6.98 6.978zm18.894-.001l6.979-6.98 6.979 6.98-6.98 6.979zm18.893.001L63.659 0l6.979 6.98-6.98 6.978zm18.893 0L82.552 0l6.979 6.98-6.98 6.978zm18.894-.001l6.979-6.98 6.979 6.98-6.98 6.979zm18.893.001L120.339 0l6.979 6.98-6.98 6.978zm18.893 0L139.232 0l6.979 6.98-6.98 6.978zm18.893 0L158.125 0l6.979 6.98-6.98 6.978zm18.894 0L177.019 0l6.979 6.98-6.98 6.978zM0 25.873l6.98-6.98 6.978 6.98-6.979 6.98zm18.893 0l6.98-6.979 6.978 6.98-6.979 6.978zm18.894 0l6.979-6.98 6.98 6.98-6.98 6.979zm18.893 0l6.98-6.98 6.978 6.98-6.979 6.98zm18.893 0l6.98-6.979 6.978 6.98-6.979 6.978zm18.894 0l6.979-6.98 6.98 6.98-6.98 6.979zm18.893 0l6.98-6.98 6.978 6.98-6.979 6.98zm18.893 0l6.98-6.98 6.978 6.98-6.979 6.98zm18.893 0l6.98-6.98 6.978 6.98-6.979 6.98zm18.894 0l6.98-6.98 6.978 6.98-6.979 6.98zM0 44.767l6.98-6.98 6.979 6.98-6.98 6.979zm18.893 0l6.98-6.979 6.979 6.98-6.98 6.978zm18.894 0l6.98-6.98 6.978 6.98-6.979 6.979zm18.893 0l6.98-6.98 6.979 6.98-6.98 6.979zm18.893 0l6.98-6.98 6.979 6.98-6.98 6.98zm18.894 0l6.98-6.98 6.978 6.98-6.979 6.979zm18.893 0l6.98-6.98 6.979 6.98-6.98 6.979zm18.893 0l6.98-6.98 6.979 6.98-6.98 6.979zm18.893 0l6.98-6.98 6.979 6.98-6.98 6.979zm18.894 0l6.98-6.98 6.979 6.98-6.98 6.979zM0 63.66l6.979-6.98 6.98 6.98-6.98 6.98zm18.893 0l6.98-6.979 6.978 6.98-6.979 6.978zm18.894 0l6.979-6.98 6.979 6.98-6.98 6.979zm18.893 0l6.979-6.98 6.98 6.98-6.98 6.98zm18.893 0l6.98-6.979 6.978 6.98-6.979 6.978zm18.894 0l6.979-6.98 6.979 6.98-6.98 6.979zm18.893 0l6.979-6.98 6.98 6.98-6.98 6.98zm18.893 0l6.979-6.98 6.98 6.98-6.98 6.98zm18.893 0l6.979-6.98 6.98 6.98-6.98 6.98zm18.894 0l6.979-6.98 6.98 6.98-6.98 6.98zM0 82.554l6.98-6.98 6.978 6.98-6.979 6.98zm18.893 0l6.98-6.979 6.979 6.98-6.98 6.978zm18.894 0l6.98-6.98 6.978 6.98-6.979 6.979zm18.893 0l6.98-6.98 6.978 6.98-6.979 6.979zm18.893 0l6.98-6.98 6.979 6.98-6.98 6.98zm18.894 0l6.98-6.98 6.978 6.98-6.979 6.979zm18.893 0l6.98-6.98 6.978 6.98-6.979 6.98zm18.893 0l6.98-6.98 6.978 6.98-6.979 6.98zm18.893 0l6.98-6.98 6.978 6.98-6.979 6.98zm18.894 0l6.98-6.98 6.978 6.98-6.979 6.98zM0 101.446l6.98-6.98 6.978 6.98-6.979 6.98zm18.893 0l6.98-6.979 6.978 6.98-6.979 6.978zm18.894 0l6.979-6.98 6.98 6.98-6.98 6.979zm18.893 0l6.98-6.98 6.978 6.98-6.979 6.98zm18.893 0l6.98-6.979 6.978 6.98-6.979 6.978zm18.894 0l6.979-6.98 6.98 6.98-6.98 6.979zm18.893 0l6.98-6.98 6.978 6.98-6.979 6.98zm18.893 0l6.98-6.98 6.978 6.98-6.979 6.98zm18.893 0l6.98-6.98 6.978 6.98-6.979 6.98zm18.894 0l6.98-6.98 6.978 6.98-6.979 6.98zM0 120.34l6.98-6.98 6.978 6.98-6.979 6.98zm18.893 0l6.98-6.979 6.978 6.98-6.979 6.978zm18.894 0l6.979-6.98 6.98 6.98-6.98 6.979zm18.893 0l6.98-6.98 6.978 6.98-6.979 6.98zm18.893 0l6.98-6.979 6.978 6.98-6.979 6.978zm18.894 0l6.979-6.98 6.98 6.98-6.98 6.979zm18.893 0l6.98-6.98 6.978 6.98-6.979 6.98zm18.893 0l6.98-6.98 6.978 6.98-6.979 6.98zm18.893 0l6.98-6.98 6.978 6.98-6.979 6.98zm18.894 0l6.98-6.98 6.978 6.98-6.979 6.98zM0 139.233l6.98-6.98 6.978 6.98-6.979 6.98zm18.893 0l6.98-6.979 6.978 6.98-6.979 6.978zm18.894 0l6.979-6.98 6.98 6.98-6.98 6.979zm18.893 0l6.98-6.98 6.978 6.98-6.979 6.98zm18.893 0l6.98-6.979 6.978 6.98-6.979 6.978zm18.894 0l6.979-6.98 6.98 6.98-6.98 6.979zm18.893 0l6.98-6.98 6.978 6.98-6.979 6.98zm18.893 0l6.98-6.98 6.978 6.98-6.979 6.98zm18.893 0l6.98-6.98 6.978 6.98-6.979 6.98zm18.894 0l6.98-6.98 6.978 6.98-6.979 6.98zM0 158.127l6.98-6.98 6.978 6.98-6.979 6.98zm18.893 0l6.98-6.979 6.978 6.98-6.979 6.978zm18.894 0l6.979-6.98 6.98 6.98-6.98 6.979zm18.893 0l6.98-6.98 6.978 6.98-6.979 6.98zm18.893 0l6.98-6.979 6.978 6.98-6.979 6.978zm18.894 0l6.979-6.98 6.98 6.98-6.98 6.979zm18.893 0l6.98-6.98 6.978 6.98-6.979 6.98zm18.893 0l6.98-6.98 6.978 6.98-6.979 6.98zm18.893 0l6.98-6.98 6.978 6.98-6.979 6.98zm18.894 0l6.98-6.98 6.978 6.98-6.979 6.98zM0 177.021l6.98-6.98 6.978 6.98-6.979 6.98zm18.893 0l6.98-6.979 6.978 6.98L25.872 184zm18.894-.001l6.979-6.978 6.98 6.979-6.98 6.979zm18.893 0l6.98-6.978 6.978 6.979L63.66 184zm18.893.001l6.98-6.979 6.978 6.98L82.552 184zm18.894-.001l6.979-6.978 6.98 6.979-6.98 6.979zm18.893.001l6.98-6.98 6.978 6.98-6.979 6.98zm18.893 0l6.98-6.98 6.978 6.98-6.979 6.98zm18.893 0l6.98-6.98 6.978 6.98-6.979 6.98zm18.894 0l6.98-6.98 6.978 6.98-6.979 6.98z"/></symbol><symbol viewBox="0 0 250 327" id="question" xmlns="http://www.w3.org/2000/svg"><path d="M78.185 216.087c2.755-9.097 5.475-16.504 8.16-22.221 2.722-5.842 5.884-10.667 9.486-14.473 3.64-3.931 8.239-7.436 13.797-10.514 5.721-3.165 12.958-6.619 21.71-10.362 9.403-4.09 17.272-8.509 23.608-13.256 6.498-4.834 11.731-9.983 15.7-15.447 4.13-5.552 7.177-11.567 9.14-18.047 3.587-11.839 3.121-21.98-1.396-30.423-4.392-8.405-12.445-14.382-24.159-17.93-9.969-3.02-19.336-2.865-28.1.466-8.64 3.37-14.602 10.474-17.886 21.316l-45.61-13.817-.033-1.235c4.13-14.53 11.25-25.91 21.362-34.14 10.15-8.353 22.242-13.465 36.278-15.336 14.161-1.832 29.341-.295 45.541 4.613 26.418 8.003 44.979 20.837 55.682 38.5 10.866 17.578 12.806 37.893 5.822 60.947-3.284 10.842-8.298 20.207-15.042 28.096-6.581 7.802-14.769 14.845-24.563 21.129-9.757 6.16-21.099 12.384-34.024 18.672-5.732 2.754-10.286 5.66-13.661 8.719-3.376 3.059-6.155 6.843-8.337 11.351-2.144 4.385-4.33 10.253-6.558 17.605l-46.917-14.213zM54.48 292.986l13.364-44.114 47.853 14.497-13.364 44.114-47.852-14.497z"/></symbol><symbol viewBox="0 0 91 82" id="quote" xmlns="http://www.w3.org/2000/svg"><path d="M18.844 81.625L.422 70.797c4.031-6.563 7.078-13.313 9.14-20.25 2.063-7.031 3.094-14.813 3.094-23.344V.625h31.64v26.438c0 6.28-1.124 12.796-3.374 19.546-2.156 6.75-5.156 13.172-9 19.266-3.844 6.094-8.203 11.344-13.078 15.75zm46.406 0L46.828 70.797c4.031-6.563 7.078-13.313 9.14-20.25 2.063-7.031 3.094-14.813 3.094-23.344V.625h31.641v26.438c0 6.28-1.125 12.796-3.375 19.546-2.156 6.75-5.156 13.172-9 19.266-3.844 6.094-8.203 11.344-13.078 15.75z"/></symbol><symbol viewBox="0 0 32 32" id="square" xmlns="http://www.w3.org/2000/svg"><path d="M.955 12.045l19-11.09 11.09 19-19 11.09z"/></symbol><symbol viewBox="0 0 16 28" id="swiper-chevron-right" xmlns="http://www.w3.org/2000/svg"><path d="M1.825 1.852l11.96 11.959-11.96 11.96"/></symbol><symbol viewBox="0 0 22 18" id="telegram" xmlns="http://www.w3.org/2000/svg"><path d="M21.906 1.64c.282-1.312-.468-1.827-1.312-1.5L1.937 7.314C.673 7.827.72 8.53 1.75 8.858l4.734 1.454 11.063-6.938c.515-.375 1.031-.14.61.188l-8.954 8.062-.328 4.922c.516 0 .703-.188.984-.469l2.297-2.25 4.828 3.563c.891.515 1.547.234 1.782-.797l3.14-14.953z"/></symbol><symbol viewBox="0 0 16 16" id="viber" xmlns="http://www.w3.org/2000/svg"><path d="M8 1.335c-1.071.013-3.374.19-4.662 1.37-.958.948-1.292 2.35-1.331 4.084-.033 1.728-.072 4.973 3.058 5.856v1.346s-.02.538.337.648c.438.14.688-.275 1.105-.72l.778-.879c2.142.178 3.782-.232 3.97-.293.435-.139 2.883-.451 3.283-3.696.41-3.351-.2-5.463-1.301-6.418h-.007c-.332-.306-1.668-1.279-4.652-1.29 0 0-.222-.014-.578-.008zm.037.942a7.02 7.02 0 01.488.011c2.527.007 3.732.767 4.017 1.023.927.794 1.405 2.697 1.055 5.495-.332 2.713-2.317 2.885-2.685 3.002-.156.05-1.6.406-3.42.289 0 0-1.356 1.634-1.78 2.055-.067.074-.146.095-.196.085-.071-.018-.093-.107-.089-.229l.013-2.233c-2.655-.733-2.498-3.5-2.47-4.946.033-1.446.304-2.628 1.113-3.43 1.088-.982 3.043-1.115 3.953-1.122zm.2 1.446a.166.166 0 100 .332 3.136 3.136 0 012.242.883c.606.588.9 1.378.912 2.411 0 .092.074.167.167.167V7.51a.167.167 0 00.168-.165 3.588 3.588 0 00-1.009-2.646c-.66-.645-1.496-.977-2.48-.977zm-2.198.382a.523.523 0 00-.342.067H5.69a2.61 2.61 0 00-.637.523 1.003 1.003 0 00-.256.525.71.71 0 00.026.302l.01.006c.172.504.396.988.67 1.444a8.48 8.48 0 001.29 1.762l.015.022.024.017.015.018.017.015c.532.505 1.127.94 1.769 1.295.734.4 1.18.588 1.447.667v.004c.078.024.15.034.221.034.228-.016.444-.109.613-.262a2.53 2.53 0 00.517-.638v-.004c.128-.241.085-.469-.1-.623-.37-.323-.77-.61-1.195-.857-.285-.155-.574-.061-.69.095l-.25.315c-.129.156-.361.134-.361.134l-.007.004C7.093 8.527 6.63 6.772 6.63 6.772s-.022-.239.139-.36l.312-.252c.15-.122.254-.41.094-.695a7.498 7.498 0 00-.856-1.194.475.475 0 00-.28-.167zm2.486.495c-.221 0-.221.334.003.334A2.098 2.098 0 0110 5.572 1.94 1.94 0 0110.5 7a.168.168 0 00.167.165l.007.009a.169.169 0 00.167-.167c.015-.662-.191-1.218-.595-1.663C9.84 4.9 9.273 4.65 8.549 4.6h-.024zm.274.898c-.228-.006-.236.335-.01.341.55.029.816.306.851.877a.166.166 0 00.165.163h.007a.168.168 0 00.16-.178c-.039-.744-.445-1.164-1.166-1.202H8.8z"/></symbol><symbol viewBox="0 0 27 16" id="vk" xmlns="http://www.w3.org/2000/svg"><path d="M25.547 1.531c.14-.562 0-1.031-.844-1.031h-2.765c-.704 0-1.032.375-1.22.797 0 0-1.405 3.422-3.374 5.672-.657.61-.938.843-1.313.843-.14 0-.422-.234-.422-.796V1.53C15.61.828 15.422.5 14.813.5H10.5c-.469 0-.703.328-.703.656 0 .657.984.797 1.078 2.672v4.078c0 .89-.14 1.078-.516 1.078-.937 0-3.187-3.468-4.546-7.406C5.53.828 5.25.5 4.546.5H1.78c-.75 0-.937.375-.937.797 0 .75.937 4.36 4.36 9.187C7.5 13.766 10.733 15.5 13.64 15.5c1.734 0 1.968-.375 1.968-1.031 0-3.14-.14-3.469.704-3.469.421 0 1.125.234 2.765 1.828 1.875 1.875 2.203 2.672 3.235 2.672h2.765c.797 0 1.172-.375.938-1.172-.516-1.594-4.032-4.969-4.22-5.203-.421-.516-.28-.75 0-1.219 0 0 3.376-4.781 3.75-6.375z"/></symbol><symbol viewBox="0 0 16 16" id="whatsapp" xmlns="http://www.w3.org/2000/svg"><path fill-rule="evenodd" clip-rule="evenodd" d="M12.269 3.755A5.947 5.947 0 008.035 2 5.994 5.994 0 002.05 7.985a5.98 5.98 0 00.799 2.992L2 14.077l3.173-.832c.877.477 1.86.728 2.86.728h.002a5.993 5.993 0 005.533-8.276 5.953 5.953 0 00-1.3-1.942zm-4.234 9.208h-.002c-.89 0-1.765-.24-2.532-.694l-.181-.108-1.883.494.502-1.835-.118-.188a4.965 4.965 0 01-.76-2.647 4.982 4.982 0 016.88-4.597c.604.25 1.152.618 1.613 1.081a4.946 4.946 0 011.455 3.52 4.982 4.982 0 01-4.974 4.974zm2.729-3.726c-.15-.075-.885-.436-1.022-.486-.137-.05-.236-.075-.336.074-.1.15-.387.486-.474.586-.087.1-.175.112-.324.038-.15-.075-.631-.233-1.203-.742a4.505 4.505 0 01-.832-1.036c-.087-.15-.009-.231.066-.306.068-.066.15-.174.224-.262.075-.087.1-.149.15-.249.05-.1.025-.187-.013-.262-.037-.075-.337-.811-.461-1.11-.121-.29-.244-.252-.336-.256a6.418 6.418 0 00-.286-.005.55.55 0 00-.4.186c-.137.15-.523.512-.523 1.248s.536 1.447.61 1.547c.075.1 1.055 1.61 2.555 2.258.358.154.636.246.853.315.358.114.684.098.942.06.287-.043.885-.362 1.01-.711.124-.35.124-.649.087-.711-.038-.063-.138-.101-.287-.176z"/></symbol></svg>