<svg width="21" height="21" viewBox="0 0 21 21" fill="none" xmlns="http://www.w3.org/2000/svg">
<path d="M5.46875 1.75C4.38922 1.75 3.5 2.63922 3.5 3.71875V17.2812C3.5 18.3608 4.38922 19.25 5.46875 19.25H15.5312C16.6108 19.25 17.5 18.3608 17.5 17.2812V8.09375C17.5 7.91971 17.4308 7.75282 17.3077 7.62976L17.3009 7.62292L11.6202 1.94226C11.4972 1.81919 11.3303 1.75003 11.1562 1.75H5.46875ZM5.46875 3.0625H10.5V6.78125C10.5 7.86078 11.3892 8.75 12.4688 8.75H16.1875V17.2812C16.1875 17.6516 15.9016 17.9375 15.5312 17.9375H5.46875C5.09841 17.9375 4.8125 17.6516 4.8125 17.2812V3.71875C4.8125 3.34841 5.09841 3.0625 5.46875 3.0625ZM11.8125 3.99048L15.2595 7.4375H12.4688C12.0984 7.4375 11.8125 7.15159 11.8125 6.78125V3.99048ZM7.65625 10.9375C7.56929 10.9363 7.48295 10.9523 7.40225 10.9848C7.32156 11.0172 7.24811 11.0653 7.18618 11.1264C7.12425 11.1875 7.07507 11.2602 7.0415 11.3404C7.00794 11.4207 6.99065 11.5068 6.99065 11.5938C6.99065 11.6807 7.00794 11.7668 7.0415 11.8471C7.07507 11.9273 7.12425 12 7.18618 12.0611C7.24811 12.1222 7.32156 12.1703 7.40225 12.2027C7.48295 12.2352 7.56929 12.2512 7.65625 12.25H13.3438C13.4307 12.2512 13.517 12.2352 13.5977 12.2027C13.6784 12.1703 13.7519 12.1222 13.8138 12.0611C13.8758 12 13.9249 11.9273 13.9585 11.8471C13.9921 11.7668 14.0093 11.6807 14.0093 11.5938C14.0093 11.5068 13.9921 11.4207 13.9585 11.3404C13.9249 11.2602 13.8758 11.1875 13.8138 11.1264C13.7519 11.0653 13.6784 11.0172 13.5977 10.9848C13.517 10.9523 13.4307 10.9363 13.3438 10.9375H7.65625ZM7.65625 14C7.56929 13.9988 7.48295 14.0148 7.40225 14.0473C7.32156 14.0797 7.24811 14.1278 7.18618 14.1889C7.12425 14.25 7.07507 14.3227 7.0415 14.4029C7.00794 14.4832 6.99065 14.5693 6.99065 14.6562C6.99065 14.7432 7.00794 14.8293 7.0415 14.9096C7.07507 14.9898 7.12425 15.0625 7.18618 15.1236C7.24811 15.1847 7.32156 15.2328 7.40225 15.2652C7.48295 15.2977 7.56929 15.3137 7.65625 15.3125H11.5938C11.6807 15.3137 11.767 15.2977 11.8477 15.2652C11.9284 15.2328 12.0019 15.1847 12.0638 15.1236C12.1258 15.0625 12.1749 14.9898 12.2085 14.9096C12.2421 14.8293 12.2593 14.7432 12.2593 14.6562C12.2593 14.5693 12.2421 14.4832 12.2085 14.4029C12.1749 14.3227 12.1258 14.25 12.0638 14.1889C12.0019 14.1278 11.9284 14.0797 11.8477 14.0473C11.767 14.0148 11.6807 13.9988 11.5938 14H7.65625Z" fill="black"/>
</svg>
