<svg width="184" height="184" viewBox="0 0 184 184" fill="none" xmlns="http://www.w3.org/2000/svg">
<rect y="6.97949" width="9.87009" height="9.87009" transform="rotate(-45 0 6.97949)" fill="#FFBA72" fill-opacity="0.2"/>
<rect x="18.8933" y="6.97949" width="9.87009" height="9.87009" transform="rotate(-45 18.8933 6.97949)" fill="#FFBA72" fill-opacity="0.2"/>
<rect x="37.7866" y="6.97949" width="9.87009" height="9.87009" transform="rotate(-45 37.7866 6.97949)" fill="#FFBA72" fill-opacity="0.2"/>
<rect x="56.6799" y="6.97949" width="9.87009" height="9.87009" transform="rotate(-45 56.6799 6.97949)" fill="#FFBA72" fill-opacity="0.2"/>
<rect x="75.5732" y="6.97949" width="9.87009" height="9.87009" transform="rotate(-45 75.5732 6.97949)" fill="#FFBA72" fill-opacity="0.2"/>
<rect x="94.4666" y="6.97949" width="9.87009" height="9.87009" transform="rotate(-45 94.4666 6.97949)" fill="#FFBA72" fill-opacity="0.2"/>
<rect x="113.36" y="6.97949" width="9.87009" height="9.87009" transform="rotate(-45 113.36 6.97949)" fill="#FFBA72" fill-opacity="0.2"/>
<rect x="132.253" y="6.97949" width="9.87009" height="9.87009" transform="rotate(-45 132.253 6.97949)" fill="#FFBA72" fill-opacity="0.2"/>
<rect x="151.146" y="6.97949" width="9.87009" height="9.87009" transform="rotate(-45 151.146 6.97949)" fill="#FFBA72" fill-opacity="0.2"/>
<rect x="170.04" y="6.97949" width="9.87009" height="9.87009" transform="rotate(-45 170.04 6.97949)" fill="#FFBA72" fill-opacity="0.2"/>
<rect y="25.873" width="9.87009" height="9.87009" transform="rotate(-45 0 25.873)" fill="#FFBA72" fill-opacity="0.2"/>
<rect x="18.8933" y="25.873" width="9.87009" height="9.87009" transform="rotate(-45 18.8933 25.873)" fill="#FFBA72" fill-opacity="0.2"/>
<rect x="37.7866" y="25.873" width="9.87009" height="9.87009" transform="rotate(-45 37.7866 25.873)" fill="#FFBA72" fill-opacity="0.2"/>
<rect x="56.6799" y="25.873" width="9.87009" height="9.87009" transform="rotate(-45 56.6799 25.873)" fill="#FFBA72" fill-opacity="0.2"/>
<rect x="75.5732" y="25.873" width="9.87009" height="9.87009" transform="rotate(-45 75.5732 25.873)" fill="#FFBA72" fill-opacity="0.2"/>
<rect x="94.4666" y="25.873" width="9.87009" height="9.87009" transform="rotate(-45 94.4666 25.873)" fill="#FFBA72" fill-opacity="0.2"/>
<rect x="113.36" y="25.873" width="9.87009" height="9.87009" transform="rotate(-45 113.36 25.873)" fill="#FFBA72" fill-opacity="0.2"/>
<rect x="132.253" y="25.873" width="9.87009" height="9.87009" transform="rotate(-45 132.253 25.873)" fill="#FFBA72" fill-opacity="0.2"/>
<rect x="151.146" y="25.873" width="9.87009" height="9.87009" transform="rotate(-45 151.146 25.873)" fill="#FFBA72" fill-opacity="0.2"/>
<rect x="170.04" y="25.873" width="9.87009" height="9.87009" transform="rotate(-45 170.04 25.873)" fill="#FFBA72" fill-opacity="0.2"/>
<rect y="44.7666" width="9.87009" height="9.87009" transform="rotate(-45 0 44.7666)" fill="#FFBA72" fill-opacity="0.2"/>
<rect x="18.8933" y="44.7666" width="9.87009" height="9.87009" transform="rotate(-45 18.8933 44.7666)" fill="#FFBA72" fill-opacity="0.2"/>
<rect x="37.7866" y="44.7666" width="9.87009" height="9.87009" transform="rotate(-45 37.7866 44.7666)" fill="#FFBA72" fill-opacity="0.2"/>
<rect x="56.6799" y="44.7666" width="9.87009" height="9.87009" transform="rotate(-45 56.6799 44.7666)" fill="#FFBA72" fill-opacity="0.2"/>
<rect x="75.5732" y="44.7666" width="9.87009" height="9.87009" transform="rotate(-45 75.5732 44.7666)" fill="#FFBA72" fill-opacity="0.2"/>
<rect x="94.4666" y="44.7666" width="9.87009" height="9.87009" transform="rotate(-45 94.4666 44.7666)" fill="#FFBA72" fill-opacity="0.2"/>
<rect x="113.36" y="44.7666" width="9.87009" height="9.87009" transform="rotate(-45 113.36 44.7666)" fill="#FFBA72" fill-opacity="0.2"/>
<rect x="132.253" y="44.7666" width="9.87009" height="9.87009" transform="rotate(-45 132.253 44.7666)" fill="#FFBA72" fill-opacity="0.2"/>
<rect x="151.146" y="44.7666" width="9.87009" height="9.87009" transform="rotate(-45 151.146 44.7666)" fill="#FFBA72" fill-opacity="0.2"/>
<rect x="170.04" y="44.7666" width="9.87009" height="9.87009" transform="rotate(-45 170.04 44.7666)" fill="#FFBA72" fill-opacity="0.2"/>
<rect y="63.6602" width="9.87009" height="9.87009" transform="rotate(-45 0 63.6602)" fill="#FFBA72" fill-opacity="0.2"/>
<rect x="18.8933" y="63.6602" width="9.87009" height="9.87009" transform="rotate(-45 18.8933 63.6602)" fill="#FFBA72" fill-opacity="0.2"/>
<rect x="37.7866" y="63.6602" width="9.87009" height="9.87009" transform="rotate(-45 37.7866 63.6602)" fill="#FFBA72" fill-opacity="0.2"/>
<rect x="56.6799" y="63.6602" width="9.87009" height="9.87009" transform="rotate(-45 56.6799 63.6602)" fill="#FFBA72" fill-opacity="0.2"/>
<rect x="75.5732" y="63.6602" width="9.87009" height="9.87009" transform="rotate(-45 75.5732 63.6602)" fill="#FFBA72" fill-opacity="0.2"/>
<rect x="94.4666" y="63.6602" width="9.87009" height="9.87009" transform="rotate(-45 94.4666 63.6602)" fill="#FFBA72" fill-opacity="0.2"/>
<rect x="113.36" y="63.6602" width="9.87009" height="9.87009" transform="rotate(-45 113.36 63.6602)" fill="#FFBA72" fill-opacity="0.2"/>
<rect x="132.253" y="63.6602" width="9.87009" height="9.87009" transform="rotate(-45 132.253 63.6602)" fill="#FFBA72" fill-opacity="0.2"/>
<rect x="151.146" y="63.6602" width="9.87009" height="9.87009" transform="rotate(-45 151.146 63.6602)" fill="#FFBA72" fill-opacity="0.2"/>
<rect x="170.04" y="63.6602" width="9.87009" height="9.87009" transform="rotate(-45 170.04 63.6602)" fill="#FFBA72" fill-opacity="0.2"/>
<rect y="82.5537" width="9.87009" height="9.87009" transform="rotate(-45 0 82.5537)" fill="#FFBA72" fill-opacity="0.2"/>
<rect x="18.8933" y="82.5537" width="9.87009" height="9.87009" transform="rotate(-45 18.8933 82.5537)" fill="#FFBA72" fill-opacity="0.2"/>
<rect x="37.7866" y="82.5537" width="9.87009" height="9.87009" transform="rotate(-45 37.7866 82.5537)" fill="#FFBA72" fill-opacity="0.2"/>
<rect x="56.6799" y="82.5537" width="9.87009" height="9.87009" transform="rotate(-45 56.6799 82.5537)" fill="#FFBA72" fill-opacity="0.2"/>
<rect x="75.5732" y="82.5537" width="9.87009" height="9.87009" transform="rotate(-45 75.5732 82.5537)" fill="#FFBA72" fill-opacity="0.2"/>
<rect x="94.4666" y="82.5537" width="9.87009" height="9.87009" transform="rotate(-45 94.4666 82.5537)" fill="#FFBA72" fill-opacity="0.2"/>
<rect x="113.36" y="82.5537" width="9.87009" height="9.87009" transform="rotate(-45 113.36 82.5537)" fill="#FFBA72" fill-opacity="0.2"/>
<rect x="132.253" y="82.5537" width="9.87009" height="9.87009" transform="rotate(-45 132.253 82.5537)" fill="#FFBA72" fill-opacity="0.2"/>
<rect x="151.146" y="82.5537" width="9.87009" height="9.87009" transform="rotate(-45 151.146 82.5537)" fill="#FFBA72" fill-opacity="0.2"/>
<rect x="170.04" y="82.5537" width="9.87009" height="9.87009" transform="rotate(-45 170.04 82.5537)" fill="#FFBA72" fill-opacity="0.2"/>
<rect y="101.446" width="9.87009" height="9.87009" transform="rotate(-45 0 101.446)" fill="#FFBA72" fill-opacity="0.2"/>
<rect x="18.8933" y="101.446" width="9.87009" height="9.87009" transform="rotate(-45 18.8933 101.446)" fill="#FFBA72" fill-opacity="0.2"/>
<rect x="37.7866" y="101.446" width="9.87009" height="9.87009" transform="rotate(-45 37.7866 101.446)" fill="#FFBA72" fill-opacity="0.2"/>
<rect x="56.6799" y="101.446" width="9.87009" height="9.87009" transform="rotate(-45 56.6799 101.446)" fill="#FFBA72" fill-opacity="0.2"/>
<rect x="75.5732" y="101.446" width="9.87009" height="9.87009" transform="rotate(-45 75.5732 101.446)" fill="#FFBA72" fill-opacity="0.2"/>
<rect x="94.4666" y="101.446" width="9.87009" height="9.87009" transform="rotate(-45 94.4666 101.446)" fill="#FFBA72" fill-opacity="0.2"/>
<rect x="113.36" y="101.446" width="9.87009" height="9.87009" transform="rotate(-45 113.36 101.446)" fill="#FFBA72" fill-opacity="0.2"/>
<rect x="132.253" y="101.446" width="9.87009" height="9.87009" transform="rotate(-45 132.253 101.446)" fill="#FFBA72" fill-opacity="0.2"/>
<rect x="151.146" y="101.446" width="9.87009" height="9.87009" transform="rotate(-45 151.146 101.446)" fill="#FFBA72" fill-opacity="0.2"/>
<rect x="170.04" y="101.446" width="9.87009" height="9.87009" transform="rotate(-45 170.04 101.446)" fill="#FFBA72" fill-opacity="0.2"/>
<rect y="120.34" width="9.87009" height="9.87009" transform="rotate(-45 0 120.34)" fill="#FFBA72" fill-opacity="0.2"/>
<rect x="18.8933" y="120.34" width="9.87009" height="9.87009" transform="rotate(-45 18.8933 120.34)" fill="#FFBA72" fill-opacity="0.2"/>
<rect x="37.7866" y="120.34" width="9.87009" height="9.87009" transform="rotate(-45 37.7866 120.34)" fill="#FFBA72" fill-opacity="0.2"/>
<rect x="56.6799" y="120.34" width="9.87009" height="9.87009" transform="rotate(-45 56.6799 120.34)" fill="#FFBA72" fill-opacity="0.2"/>
<rect x="75.5732" y="120.34" width="9.87009" height="9.87009" transform="rotate(-45 75.5732 120.34)" fill="#FFBA72" fill-opacity="0.2"/>
<rect x="94.4666" y="120.34" width="9.87009" height="9.87009" transform="rotate(-45 94.4666 120.34)" fill="#FFBA72" fill-opacity="0.2"/>
<rect x="113.36" y="120.34" width="9.87009" height="9.87009" transform="rotate(-45 113.36 120.34)" fill="#FFBA72" fill-opacity="0.2"/>
<rect x="132.253" y="120.34" width="9.87009" height="9.87009" transform="rotate(-45 132.253 120.34)" fill="#FFBA72" fill-opacity="0.2"/>
<rect x="151.146" y="120.34" width="9.87009" height="9.87009" transform="rotate(-45 151.146 120.34)" fill="#FFBA72" fill-opacity="0.2"/>
<rect x="170.04" y="120.34" width="9.87009" height="9.87009" transform="rotate(-45 170.04 120.34)" fill="#FFBA72" fill-opacity="0.2"/>
<rect y="139.233" width="9.87009" height="9.87009" transform="rotate(-45 0 139.233)" fill="#FFBA72" fill-opacity="0.2"/>
<rect x="18.8933" y="139.233" width="9.87009" height="9.87009" transform="rotate(-45 18.8933 139.233)" fill="#FFBA72" fill-opacity="0.2"/>
<rect x="37.7866" y="139.233" width="9.87009" height="9.87009" transform="rotate(-45 37.7866 139.233)" fill="#FFBA72" fill-opacity="0.2"/>
<rect x="56.6799" y="139.233" width="9.87009" height="9.87009" transform="rotate(-45 56.6799 139.233)" fill="#FFBA72" fill-opacity="0.2"/>
<rect x="75.5732" y="139.233" width="9.87009" height="9.87009" transform="rotate(-45 75.5732 139.233)" fill="#FFBA72" fill-opacity="0.2"/>
<rect x="94.4666" y="139.233" width="9.87009" height="9.87009" transform="rotate(-45 94.4666 139.233)" fill="#FFBA72" fill-opacity="0.2"/>
<rect x="113.36" y="139.233" width="9.87009" height="9.87009" transform="rotate(-45 113.36 139.233)" fill="#FFBA72" fill-opacity="0.2"/>
<rect x="132.253" y="139.233" width="9.87009" height="9.87009" transform="rotate(-45 132.253 139.233)" fill="#FFBA72" fill-opacity="0.2"/>
<rect x="151.146" y="139.233" width="9.87009" height="9.87009" transform="rotate(-45 151.146 139.233)" fill="#FFBA72" fill-opacity="0.2"/>
<rect x="170.04" y="139.233" width="9.87009" height="9.87009" transform="rotate(-45 170.04 139.233)" fill="#FFBA72" fill-opacity="0.2"/>
<rect y="158.127" width="9.87009" height="9.87009" transform="rotate(-45 0 158.127)" fill="#FFBA72" fill-opacity="0.2"/>
<rect x="18.8933" y="158.127" width="9.87009" height="9.87009" transform="rotate(-45 18.8933 158.127)" fill="#FFBA72" fill-opacity="0.2"/>
<rect x="37.7866" y="158.127" width="9.87009" height="9.87009" transform="rotate(-45 37.7866 158.127)" fill="#FFBA72" fill-opacity="0.2"/>
<rect x="56.6799" y="158.127" width="9.87009" height="9.87009" transform="rotate(-45 56.6799 158.127)" fill="#FFBA72" fill-opacity="0.2"/>
<rect x="75.5732" y="158.127" width="9.87009" height="9.87009" transform="rotate(-45 75.5732 158.127)" fill="#FFBA72" fill-opacity="0.2"/>
<rect x="94.4666" y="158.127" width="9.87009" height="9.87009" transform="rotate(-45 94.4666 158.127)" fill="#FFBA72" fill-opacity="0.2"/>
<rect x="113.36" y="158.127" width="9.87009" height="9.87009" transform="rotate(-45 113.36 158.127)" fill="#FFBA72" fill-opacity="0.2"/>
<rect x="132.253" y="158.127" width="9.87009" height="9.87009" transform="rotate(-45 132.253 158.127)" fill="#FFBA72" fill-opacity="0.2"/>
<rect x="151.146" y="158.127" width="9.87009" height="9.87009" transform="rotate(-45 151.146 158.127)" fill="#FFBA72" fill-opacity="0.2"/>
<rect x="170.04" y="158.127" width="9.87009" height="9.87009" transform="rotate(-45 170.04 158.127)" fill="#FFBA72" fill-opacity="0.2"/>
<rect y="177.021" width="9.87009" height="9.87009" transform="rotate(-45 0 177.021)" fill="#FFBA72" fill-opacity="0.2"/>
<rect x="18.8933" y="177.021" width="9.87009" height="9.87009" transform="rotate(-45 18.8933 177.021)" fill="#FFBA72" fill-opacity="0.2"/>
<rect x="37.7866" y="177.021" width="9.87009" height="9.87009" transform="rotate(-45 37.7866 177.021)" fill="#FFBA72" fill-opacity="0.2"/>
<rect x="56.6799" y="177.021" width="9.87009" height="9.87009" transform="rotate(-45 56.6799 177.021)" fill="#FFBA72" fill-opacity="0.2"/>
<rect x="75.5732" y="177.021" width="9.87009" height="9.87009" transform="rotate(-45 75.5732 177.021)" fill="#FFBA72" fill-opacity="0.2"/>
<rect x="94.4666" y="177.021" width="9.87009" height="9.87009" transform="rotate(-45 94.4666 177.021)" fill="#FFBA72" fill-opacity="0.2"/>
<rect x="113.36" y="177.021" width="9.87009" height="9.87009" transform="rotate(-45 113.36 177.021)" fill="#FFBA72" fill-opacity="0.2"/>
<rect x="132.253" y="177.021" width="9.87009" height="9.87009" transform="rotate(-45 132.253 177.021)" fill="#FFBA72" fill-opacity="0.2"/>
<rect x="151.146" y="177.021" width="9.87009" height="9.87009" transform="rotate(-45 151.146 177.021)" fill="#FFBA72" fill-opacity="0.2"/>
<rect x="170.04" y="177.021" width="9.87009" height="9.87009" transform="rotate(-45 170.04 177.021)" fill="#FFBA72" fill-opacity="0.2"/>
</svg>
