<svg width="250" height="327" viewBox="0 0 250 327" fill="none" xmlns="http://www.w3.org/2000/svg">
<path d="M78.1846 216.087C80.9404 206.99 83.6605 199.583 86.3448 193.866C89.067 188.024 92.2291 183.199 95.8312 179.393C99.4711 175.462 104.07 171.957 109.628 168.879C115.349 165.714 122.586 162.26 131.338 158.517C140.741 154.427 148.61 150.008 154.946 145.261C161.444 140.427 166.677 135.278 170.646 129.814C174.776 124.262 177.823 118.247 179.786 111.767C183.373 99.9281 182.907 89.7873 178.39 81.3443C173.998 72.9389 165.945 66.962 154.231 63.4134C144.262 60.3933 134.895 60.5489 126.131 63.8801C117.491 67.2492 111.529 74.3545 108.245 85.196L62.6357 71.3791L62.6016 70.1443C66.7315 55.6134 73.8524 44.2334 83.9642 36.0044C94.1137 27.6507 106.206 22.5387 120.242 20.6684C134.403 18.8358 149.583 20.3733 165.783 25.281C192.201 33.2842 210.762 46.1178 221.465 63.7817C232.331 81.3587 234.271 101.674 227.287 124.728C224.003 135.57 218.989 144.935 212.245 152.824C205.664 160.626 197.476 167.669 187.682 173.953C177.925 180.113 166.583 186.337 153.658 192.625C147.926 195.379 143.372 198.285 139.997 201.344C136.621 204.403 133.842 208.187 131.66 212.695C129.516 217.08 127.33 222.948 125.102 230.3L78.1846 216.087ZM54.4805 292.986L67.8444 248.872L115.697 263.369L102.333 307.483L54.4805 292.986Z" fill="#F2F6FF"/>
</svg>
