<svg width="91" height="82" viewBox="0 0 91 82" fill="none" xmlns="http://www.w3.org/2000/svg">
<path d="M18.8438 81.625L0.421875 70.7969C4.45312 64.2344 7.5 57.4844 9.5625 50.5469C11.625 43.5156 12.6562 35.7344 12.6562 27.2031V0.625H44.2969V27.0625C44.2969 33.3438 43.1719 39.8594 40.9219 46.6094C38.7656 53.3594 35.7656 59.7812 31.9219 65.875C28.0781 71.9688 23.7188 77.2188 18.8438 81.625ZM65.25 81.625L46.8281 70.7969C50.8594 64.2344 53.9062 57.4844 55.9688 50.5469C58.0312 43.5156 59.0625 35.7344 59.0625 27.2031V0.625H90.7031V27.0625C90.7031 33.3438 89.5781 39.8594 87.3281 46.6094C85.1719 53.3594 82.1719 59.7812 78.3281 65.875C74.4844 71.9688 70.125 77.2188 65.25 81.625Z" fill="#E3ECFF"/>
</svg>
