<svg width="27" height="16" viewBox="0 0 27 16" fill="none" xmlns="http://www.w3.org/2000/svg">
<path d="M25.5469 1.53125C25.6875 0.96875 25.5469 0.5 24.7031 0.5H21.9375C21.2344 0.5 20.9062 0.875 20.7188 1.29688C20.7188 1.29688 19.3125 4.71875 17.3438 6.96875C16.6875 7.57812 16.4062 7.8125 16.0312 7.8125C15.8906 7.8125 15.6094 7.57812 15.6094 7.01562V1.53125C15.6094 0.828125 15.4219 0.5 14.8125 0.5H10.5C10.0312 0.5 9.79688 0.828125 9.79688 1.15625C9.79688 1.8125 10.7812 1.95312 10.875 3.82812V7.90625C10.875 8.79688 10.7344 8.98438 10.3594 8.98438C9.42188 8.98438 7.17188 5.51562 5.8125 1.57812C5.53125 0.828125 5.25 0.5 4.54688 0.5H1.78125C1.03125 0.5 0.84375 0.875 0.84375 1.29688C0.84375 2.04688 1.78125 5.65625 5.20312 10.4844C7.5 13.7656 10.7344 15.5 13.6406 15.5C15.375 15.5 15.6094 15.125 15.6094 14.4688C15.6094 11.3281 15.4688 11 16.3125 11C16.7344 11 17.4375 11.2344 19.0781 12.8281C20.9531 14.7031 21.2812 15.5 22.3125 15.5H25.0781C25.875 15.5 26.25 15.125 26.0156 14.3281C25.5 12.7344 21.9844 9.35938 21.7969 9.125C21.375 8.60938 21.5156 8.375 21.7969 7.90625C21.7969 7.90625 25.1719 3.125 25.5469 1.53125Z" fill="white"/>
</svg>
